<?xml version="1.0" encoding="UTF-8"?>
<svg id="Layer_1" data-name="Layer 1" xmlns="http://www.w3.org/2000/svg" viewBox="0 0 950 950">
  <defs>
    <style>
      .cls-1 {
        fill: #e42320;
        fill-rule: evenodd;
      }
    </style>
  </defs>
  <g>
    <polygon class="cls-1" points="137.76 333.95 34.26 513.62 96.48 513.62 167.57 380.34 241.72 513.62 305.99 513.62 202.35 333.95 137.76 333.95"/>
    <polygon class="cls-1" points="340.38 333.95 340.38 513.62 398.04 513.62 398.04 434.44 513.46 434.44 513.46 513.62 573.41 513.62 573.41 333.95 513.84 333.95 513.84 405.24 397.65 405.24 397.65 333.95 340.38 333.95"/>
    <polygon class="cls-1" points="633.61 333.95 633.61 513.62 688.12 513.62 688.12 372.18 745.83 513.62 803.55 513.62 860.88 373.47 860.88 513.62 915.65 513.62 915.65 333.95 826.86 333.95 774.63 457.19 721.38 333.95 633.61 333.95"/>
  </g>
  <g>
    <path d="m37.16,553.3h19.56c13.79,0,24.01,4.76,24.01,19.02s-10.26,20-23.63,20h-8.93v22.68h-11.02v-61.7Zm19.03,30.27c9.27,0,13.67-3.66,13.67-11.25s-4.82-10.27-14.05-10.27h-7.63v21.51h8.01Z"/>
    <path d="m103.16,562.51h-17.93v-9.21h46.87v9.21h-17.93v52.5h-11.02v-52.5Z"/>
    <path d="m173.62,553.3h12.91l20.25,61.7h-11.66l-9.46-32.83c-1.98-6.53-3.8-13.57-5.62-20.34h-.38c-1.71,6.83-3.53,13.81-5.51,20.34l-9.53,32.83h-11.24l20.25-61.7Zm-8.28,36.4h29.25v8.59h-29.25v-8.59Z"/>
    <path d="m210.57,609.68l5.09-6.91c4.14,3.21,8.15,5.17,12.88,5.17,5.09,0,7.48-2.38,7.48-5.55,0-3.89-5.05-5.62-10.03-7.51-6.12-2.28-13.1-5.77-13.1-13.51s6.53-13.85,16.98-13.85c6.5,0,11.7,2.62,15.5,5.55l-5.01,6.68c-3.27-2.38-6.55-4.04-10.22-4.04-4.69,0-6.91,2.23-6.91,5.13,0,3.66,4.71,5.06,9.76,6.91,6.31,2.34,13.37,5.36,13.37,14,0,7.96-6.34,14.38-18.12,14.38-6.38,0-13.1-2.72-17.66-6.45Z"/>
    <path d="m255.87,599.38v-22.08h-6.65v-8.15l7.22-.49,1.29-12.64h9.08v12.64h11.89v8.64h-11.89v22.06c0,5.45,2.13,8.13,6.61,8.13,1.6,0,3.49-.53,4.86-1.06l1.86,8c-2.54.83-5.79,1.7-9.53,1.7-10.75,0-14.74-6.76-14.74-16.76Z"/>
    <path d="m288.52,568.66h8.96l.84,8.27h.3c3.32-6.04,8.26-9.4,13.26-9.4,2.37,0,3.87.3,5.28.94l-1.9,9.43c-1.63-.45-2.85-.75-4.79-.75-3.72,0-8.2,2.53-11.02,9.59v28.27h-10.94v-46.34Z"/>
    <path d="m318.96,602.55c0-9.93,8.28-15.1,27.42-17.13-.15-4.98-2.17-9.13-8.47-9.13-4.63,0-9,2.08-13.1,4.57l-4.03-7.25c5.13-3.21,11.74-6.08,19.14-6.08,11.66,0,17.4,7.13,17.4,20.04v27.44h-8.96l-.84-5.13h-.3c-4.18,3.55-8.96,6.26-14.47,6.26-8.17,0-13.79-5.51-13.79-13.59Zm27.42.04v-10.42c-12.65,1.58-16.86,4.87-16.86,9.55,0,4.09,2.81,5.89,6.72,5.89s6.69-1.85,10.14-5.02Z"/>
    <path d="m390.41,553.3h11.02v24.8h25.11v-24.8h11.02v61.7h-11.02v-27.36h-25.11v27.36h-11.02v-61.7Z"/>
    <path d="m449.34,591.87c0-15.44,10.56-24.34,22.18-24.34s22.18,8.91,22.18,24.34-10.56,24.27-22.18,24.27-22.18-8.91-22.18-24.27Zm33.12,0c0-9.28-4.1-15.47-10.94-15.47s-10.94,6.19-10.94,15.47,4.1,15.4,10.94,15.4,10.94-6.11,10.94-15.4Z"/>
    <path d="m504.55,568.66h8.96l.84,6.26h.3c4.18-4.04,8.93-7.4,15.31-7.4,9.99,0,14.36,6.72,14.36,18.42v29.06h-10.94v-27.66c0-7.62-2.2-10.49-7.25-10.49-4.1,0-6.8,2-10.64,5.77v32.38h-10.94v-46.34Z"/>
    <path d="m554.88,591.87c0-15.1,9.53-24.34,19.75-24.34,5.28,0,8.62,1.96,12.23,5.09l-.42-7.47v-16.79h10.94v66.65h-8.96l-.84-5.02h-.3c-3.46,3.43-8.24,6.15-13.26,6.15-11.62,0-19.14-8.98-19.14-24.27Zm31.56,10.08v-21.59c-3.19-2.83-6.34-3.85-9.5-3.85-5.93,0-10.83,5.59-10.83,15.25s3.87,15.4,10.6,15.4c3.61,0,6.65-1.58,9.72-5.21Z"/>
    <path d="m608.78,602.55c0-9.93,8.28-15.1,27.42-17.13-.15-4.98-2.17-9.13-8.47-9.13-4.63,0-9,2.08-13.1,4.57l-4.03-7.25c5.13-3.21,11.74-6.08,19.14-6.08,11.66,0,17.4,7.13,17.4,20.04v27.44h-8.96l-.84-5.13h-.3c-4.18,3.55-8.96,6.26-14.47,6.26-8.17,0-13.79-5.51-13.79-13.59Zm27.42.04v-10.42c-12.65,1.58-16.86,4.87-16.86,9.55,0,4.09,2.81,5.89,6.72,5.89s6.69-1.85,10.14-5.02Z"/>
    <path d="m680.22,553.3h12.46l10.98,30.15c1.37,3.92,2.62,8.08,3.99,12.11h.38c1.37-4.04,2.54-8.19,3.91-12.11l10.75-30.15h12.46v61.7h-10.1v-28.23c0-5.7.87-13.91,1.41-19.62h-.38l-5.01,14.34-10.22,27.72h-6.53l-10.26-27.72-4.94-14.34h-.38c.53,5.72,1.41,13.93,1.41,19.62v28.23h-9.91v-61.7Z"/>
    <path d="m746.94,591.87c0-15.44,10.56-24.34,22.18-24.34s22.18,8.91,22.18,24.34-10.56,24.27-22.18,24.27-22.18-8.91-22.18-24.27Zm33.12,0c0-9.28-4.1-15.47-10.94-15.47s-10.94,6.19-10.94,15.47,4.1,15.4,10.94,15.4,10.94-6.11,10.94-15.4Z"/>
    <path d="m801.69,599.38v-22.08h-6.65v-8.15l7.22-.49,1.29-12.64h9.08v12.64h11.89v8.64h-11.89v22.06c0,5.45,2.13,8.13,6.61,8.13,1.6,0,3.49-.53,4.86-1.06l1.86,8c-2.54.83-5.79,1.7-9.53,1.7-10.75,0-14.74-6.76-14.74-16.76Z"/>
    <path d="m829.75,591.87c0-15.44,10.56-24.34,22.18-24.34s22.18,8.91,22.18,24.34-10.56,24.27-22.18,24.27-22.18-8.91-22.18-24.27Zm33.12,0c0-9.28-4.1-15.47-10.94-15.47s-10.94,6.19-10.94,15.47,4.1,15.4,10.94,15.4,10.94-6.11,10.94-15.4Z"/>
    <path d="m884.95,568.66h8.96l.84,8.27h.3c3.32-6.04,8.26-9.4,13.26-9.4,2.37,0,3.87.3,5.28.94l-1.9,9.43c-1.63-.45-2.85-.75-4.79-.75-3.72,0-8.2,2.53-11.02,9.59v28.27h-10.94v-46.34Z"/>
  </g>
</svg>