<svg clip-rule="evenodd" fill-rule="evenodd" height="299" image-rendering="optimizeQuality" shape-rendering="geometricPrecision" text-rendering="geometricPrecision" viewBox="0 0 83.66000000000001 10" width="2500" xmlns="http://www.w3.org/2000/svg"><g fill="#0c4c8f"><path d="M2.503 2.758v6.995h2.949V2.758H7.98V.268H0v2.49zM45.211 4.79c-.55-.476-1.325-.781-2.24-1.01a5.023 5.023 0 0 1-.735-.245c-.198-.083-.42-.18-.547-.362a.356.356 0 0 1-.01-.375c.074-.14.206-.2.355-.24.159-.039.375-.031.535 0 .18.035.357.091.53.156.398.155.77.372 1.122.614l.297.209 1.423-2.06-.266-.212C44.708.49 43.508.051 42.133.051h-.012c-.978 0-1.85.289-2.481.826-.63.53-1.008 1.314-1.008 2.22.003.002 0 .008.003.019v.018c0 .01-.003.019-.003.03-.001.977.362 1.656.953 2.116.59.463 1.39.72 2.287.94.24.06.489.114.712.226.216.104.486.295.486.567v.019c-.002.134-.044.226-.18.317-.14.09-.38.164-.75.164-.631 0-1.336-.367-2.11-1.002l-.276-.229-1.618 1.935.26.236a6.057 6.057 0 0 0 4.037 1.522c1.025 0 1.93-.262 2.595-.8.664-.535 1.053-1.35 1.053-2.33V6.79c0-.869-.317-1.525-.87-2zM31.23.268h-2.31v9.485h2.948V5.311l3.382 4.442h2.17V.268h-2.946v4.268zM11.971 2.719h.974c.425.013.715.095.89.234.173.14.273.352.273.688-.007.282-.094.487-.264.634-.17.149-.45.246-.863.255h-1.01zm5.216 7.034l-1.683-3.436c.7-.395 1.236-1.042 1.443-1.84.076-.293.108-.609.106-.912v-.052c.002-.898-.292-1.69-.854-2.25-.659-.661-1.63-.995-2.808-.995H9.025v9.485h2.946V6.945h.414c.06 0 .118-.003.177-.005l1.356 2.813z"/></g><path d="M23.027 6.509h-3.76l1.88-3.255z" fill="#007334"/><path d="M26.784 6.509h-3.757l1.877-3.255z" fill="#073a78"/><path d="M23.027 6.509h3.757l-1.88 3.253z" fill="#971d78"/><path d="M28.661 9.762h-3.757l1.88-3.253z" fill="#c5177a"/><path d="M21.147 9.762l-.94-1.626 2.82-1.627z" fill="#a0ce14"/><path d="M21.147 9.762l-.94-1.626-2.818 1.626z" fill="#fddf43"/><path d="M19.268 6.509l.94 1.627 2.819-1.627z" fill="#4fa531"/><path d="M19.268 6.509l.94 1.627-2.819 1.626z" fill="#f3ae00"/><path d="M24.904 3.254h-1.877V0z" fill="#073a78"/><path d="M24.904 3.254h-1.877v3.255zM21.147 3.254h1.88V0z" fill="#004990"/><path d="M21.147 3.254h1.88v3.255z" fill="#0063a8"/><path d="M54.784 7.269l-.123.119c-.8.777-1.59 1.295-2.838 1.295-1.892 0-3.375-1.615-3.375-3.676v-.028c0-2.08 1.45-3.651 3.375-3.651 1.041 0 1.867.369 2.76 1.23l.128.124.94-1.028-.122-.116C54.701.746 53.683.01 51.837.01c-2.697 0-4.807 2.195-4.807 4.996v.026c0 2.83 2.048 4.967 4.768 4.967 1.893 0 2.977-.854 3.787-1.69l.118-.121zM60.97 8.683c-1.964 0-3.442-1.581-3.442-3.676V4.98c0-2.08 1.468-3.651 3.413-3.651 1.962 0 3.442 1.582 3.442 3.68v.025c0 2.082-1.47 3.65-3.413 3.65zm4.83-3.747C65.78 2.126 63.71.011 60.97.011c-2.727 0-4.86 2.195-4.86 4.996v.026c0 2.83 2.076 4.967 4.831 4.967 2.71 0 4.836-2.172 4.86-4.952a.162.162 0 0 0 0-.112zM68.517 1.487h2.654c1.381 0 2.173.608 2.173 1.668v.027c0 1.06-.859 1.744-2.185 1.744h-2.642zm3.855 4.484c1.485-.368 2.363-1.41 2.363-2.83v-.025c0-.768-.268-1.463-.759-1.96C73.355.521 72.386.17 71.25.17h-4.112v9.67h1.38V6.218h2.357l2.658 3.622h1.697zM79.926 5.248h-2.093v-3.76h2.145c1.455 0 2.29.676 2.29 1.853v.026c0 1.141-.918 1.881-2.342 1.881zm.13-5.077h-3.601v9.67h1.378V6.55h2.055c1.877 0 3.772-.995 3.772-3.222v-.027c0-1.9-1.413-3.13-3.603-3.13z" fill="#0c4c8f"/></svg>